<svg width="127" height="40" viewBox="0 0 127 40" fill="none" xmlns="http://www.w3.org/2000/svg">
<path d="M15.5 18.36C13.5667 18.36 12.0733 17.9067 11.02 17C9.98 16.08 9.46667 14.7067 9.48 12.88H12.74C12.7267 13.64 12.9533 14.22 13.42 14.62C13.8867 15.02 14.54 15.22 15.38 15.22C16.0733 15.22 16.62 15.1067 17.02 14.88C17.42 14.6533 17.62 14.3067 17.62 13.84C17.62 13.4533 17.4133 13.1733 17 13C16.6 12.8267 16.2 12.7067 15.8 12.64C15.4 12.56 15.1533 12.5133 15.06 12.5C14.0333 12.3 13.1467 12.06 12.4 11.78C11.6533 11.4867 11.0267 11.0467 10.52 10.46C10.0133 9.87333 9.76 9.1 9.76 8.14C9.76 7.18 10.0133 6.36667 10.52 5.7C11.0267 5.02 11.7 4.51333 12.54 4.18C13.3933 3.84667 14.32 3.68 15.32 3.68C16.5333 3.68 17.58 3.90667 18.46 4.36C19.3533 4.81333 20.0533 5.5 20.56 6.42C20.8133 6.86 20.9667 7.28667 21.02 7.7C21.0733 8.1 21.1 8.49333 21.1 8.88H17.84C17.84 8.16 17.6467 7.63333 17.26 7.3C16.8733 6.95333 16.2733 6.78 15.46 6.78C14.8067 6.78 14.3 6.89333 13.94 7.12C13.58 7.34667 13.4 7.65333 13.4 8.04C13.4 8.46667 13.64 8.78 14.12 8.98C14.6 9.18 15.2067 9.36 15.94 9.52C17.14 9.76 18.0733 9.99333 18.74 10.22C19.42 10.4333 20.0067 10.82 20.5 11.38C20.9933 11.94 21.24 12.7267 21.24 13.74C21.24 14.7 20.9733 15.5267 20.44 16.22C19.9067 16.9133 19.2 17.4467 18.32 17.82C17.4533 18.18 16.5133 18.36 15.5 18.36ZM25.2847 4.08L30.2247 11.52L35.1247 4.08H36.0047L30.5847 12.3V18H29.8447V12.3L24.4047 4.08H25.2847ZM40.7094 18V4.08H41.4494V17.26H51.1494V18H40.7094ZM54.4741 4.08L59.7941 17.02L65.1141 4.08H65.8941L60.1741 18H59.3941L53.6741 4.08H54.4741ZM74.2388 4.08H75.0188L80.7388 18H79.9388L78.0588 13.4H71.1988L69.2988 18H68.5188L74.2388 4.08ZM71.4988 12.68H77.7588L74.6188 5.04L71.4988 12.68ZM93.9434 4.08V4.82H89.7834V17.26H93.9434V18H84.9234V17.26H89.0634V4.82H84.9234V4.08H93.9434ZM98.7881 18V4.08H99.5681L109.288 13.52V4.08H110.028V18H109.288V14.56L99.5281 5.04V18H98.7881ZM15.6 29.88L21.4 38H10.2V24.08H21.4L15.6 29.88ZM15.08 30.4L10.94 34.54V37.26H19.98L15.08 30.4ZM29.8247 24.08H30.6047L36.3247 38H35.5247L33.6447 33.4H26.7847L24.8847 38H24.1047L29.8247 24.08ZM27.0847 32.68H33.3447L30.2047 25.04L27.0847 32.68ZM44.8694 24.08C45.8827 24.08 46.816 24.3333 47.6694 24.84C48.536 25.3467 49.2227 26.0333 49.7294 26.9C50.236 27.7533 50.4894 28.6867 50.4894 29.7V32.38C50.4894 33.3933 50.236 34.3333 49.7294 35.2C49.2227 36.0533 48.536 36.7333 47.6694 37.24C46.816 37.7467 45.8827 38 44.8694 38H39.7294V24.08H44.8694ZM49.7494 29.7C49.7494 28.82 49.5294 28.0067 49.0894 27.26C48.6494 26.5133 48.0494 25.92 47.2894 25.48C46.5427 25.04 45.7294 24.82 44.8494 24.82H40.4694V37.26H44.8494C45.7294 37.26 46.5427 37.04 47.2894 36.6C48.0494 36.16 48.6494 35.5667 49.0894 34.82C49.5294 34.0733 49.7494 33.26 49.7494 32.38V29.7ZM59.5741 38.3C58.6274 38.3 57.7474 38.0867 56.9341 37.66C56.1207 37.22 55.4541 36.62 54.9341 35.86C54.4141 35.1 54.1074 34.26 54.0141 33.34H54.7541C54.8474 34.1267 55.1207 34.8467 55.5741 35.5C56.0274 36.14 56.6007 36.6467 57.2941 37.02C58.0007 37.38 58.7607 37.56 59.5741 37.56C60.4674 37.56 61.2874 37.34 62.0341 36.9C62.7807 36.46 63.3741 35.8533 63.8141 35.08C64.2541 34.3067 64.4741 33.44 64.4741 32.48V24.82H58.2341V24.08H65.1941V32.48C65.1941 33.5733 64.9407 34.5667 64.4341 35.46C63.9407 36.34 63.2607 37.0333 62.3941 37.54C61.5407 38.0467 60.6007 38.3 59.5741 38.3ZM74.6188 23.78C75.6588 23.78 76.6188 24.04 77.4987 24.56C78.3788 25.0667 79.0721 25.76 79.5788 26.64C80.0988 27.52 80.3588 28.48 80.3588 29.52V32.56C80.3588 33.6 80.0988 34.56 79.5788 35.44C79.0721 36.32 78.3788 37.02 77.4987 37.54C76.6188 38.0467 75.6588 38.3 74.6188 38.3C73.5788 38.3 72.6188 38.0467 71.7388 37.54C70.8588 37.02 70.1588 36.32 69.6388 35.44C69.1321 34.56 68.8788 33.6 68.8788 32.56V29.52C68.8788 28.48 69.1321 27.52 69.6388 26.64C70.1588 25.76 70.8588 25.0667 71.7388 24.56C72.6188 24.04 73.5788 23.78 74.6188 23.78ZM69.6188 32.56C69.6188 33.4667 69.8388 34.3067 70.2788 35.08C70.7321 35.84 71.3388 36.4467 72.0988 36.9C72.8721 37.34 73.7121 37.56 74.6188 37.56C75.5254 37.56 76.3588 37.34 77.1188 36.9C77.8921 36.4467 78.4988 35.84 78.9388 35.08C79.3921 34.3067 79.6188 33.4667 79.6188 32.56V29.52C79.6188 28.6133 79.3921 27.78 78.9388 27.02C78.4988 26.2467 77.8921 25.64 77.1188 25.2C76.3588 24.7467 75.5254 24.52 74.6188 24.52C73.7121 24.52 72.8721 24.7467 72.0988 25.2C71.3388 25.64 70.7321 26.2467 70.2788 27.02C69.8388 27.78 69.6188 28.6133 69.6188 29.52V32.56ZM84.8134 37.24C84.8134 36.9933 84.9001 36.7833 85.0734 36.61C85.2534 36.43 85.4701 36.34 85.7234 36.34C85.9768 36.34 86.1901 36.43 86.3634 36.61C86.5434 36.7833 86.6334 36.9933 86.6334 37.24C86.6334 37.4867 86.5434 37.7 86.3634 37.88C86.1901 38.06 85.9768 38.15 85.7234 38.15C85.4768 38.15 85.2634 38.06 85.0834 37.88C84.9034 37.7 84.8134 37.4867 84.8134 37.24ZM90.7358 35.34C90.7358 35.78 90.8458 36.1867 91.0658 36.56C91.2924 36.9333 91.5924 37.23 91.9658 37.45C92.3458 37.67 92.7558 37.78 93.1958 37.78C93.6491 37.78 94.0591 37.69 94.4258 37.51C94.7924 37.33 95.0791 37.08 95.2858 36.76C95.4991 36.44 95.6091 36.08 95.6158 35.68H95.9758C95.9758 36.14 95.8524 36.56 95.6058 36.94C95.3658 37.3133 95.0324 37.61 94.6058 37.83C94.1858 38.0433 93.7158 38.15 93.1958 38.15C92.6891 38.15 92.2191 38.0233 91.7858 37.77C91.3524 37.5167 91.0091 37.1767 90.7558 36.75C90.5024 36.3167 90.3758 35.8467 90.3758 35.34V33.7C90.3758 33.1933 90.4991 32.7267 90.7458 32.3C90.9991 31.8667 91.3391 31.5233 91.7658 31.27C92.1991 31.0167 92.6691 30.89 93.1758 30.89C93.6891 30.89 94.1558 31 94.5758 31.22C95.0024 31.4333 95.3391 31.73 95.5858 32.11C95.8324 32.4833 95.9558 32.9 95.9558 33.36H95.5958C95.5891 32.96 95.4791 32.6 95.2658 32.28C95.0524 31.96 94.7624 31.71 94.3958 31.53C94.0358 31.35 93.6291 31.26 93.1758 31.26C92.7358 31.26 92.3291 31.37 91.9558 31.59C91.5824 31.81 91.2858 32.1067 91.0658 32.48C90.8458 32.8533 90.7358 33.26 90.7358 33.7V35.34ZM100.528 30.89C101.048 30.89 101.528 31.02 101.968 31.28C102.408 31.5333 102.755 31.88 103.008 32.32C103.268 32.76 103.398 33.24 103.398 33.76V35.28C103.398 35.8 103.268 36.28 103.008 36.72C102.755 37.16 102.408 37.51 101.968 37.77C101.528 38.0233 101.048 38.15 100.528 38.15C100.008 38.15 99.5281 38.0233 99.0881 37.77C98.6481 37.51 98.2981 37.16 98.0381 36.72C97.7848 36.28 97.6581 35.8 97.6581 35.28V33.76C97.6581 33.24 97.7848 32.76 98.0381 32.32C98.2981 31.88 98.6481 31.5333 99.0881 31.28C99.5281 31.02 100.008 30.89 100.528 30.89ZM98.0281 35.28C98.0281 35.7333 98.1381 36.1533 98.3581 36.54C98.5848 36.92 98.8881 37.2233 99.2681 37.45C99.6548 37.67 100.075 37.78 100.528 37.78C100.981 37.78 101.398 37.67 101.778 37.45C102.165 37.2233 102.468 36.92 102.688 36.54C102.915 36.1533 103.028 35.7333 103.028 35.28V33.76C103.028 33.3067 102.915 32.89 102.688 32.51C102.468 32.1233 102.165 31.82 101.778 31.6C101.398 31.3733 100.981 31.26 100.528 31.26C100.075 31.26 99.6548 31.3733 99.2681 31.6C98.8881 31.82 98.5848 32.1233 98.3581 32.51C98.1381 32.89 98.0281 33.3067 98.0281 33.76V35.28ZM105.49 38H105.12V31.04H105.52L107.95 35.33L110.37 31.04H110.74V38H110.37V31.78L108.12 35.75H107.77L105.49 31.73V38Z" fill="#063970"/>
<line x1="0.5" y1="2" x2="0.500002" y2="40" stroke="#063970"/>
</svg>
